<svg id="Layer_1" data-name="Layer 1" xmlns="http://www.w3.org/2000/svg" viewBox="0 0 300 300"><title>logo</title><rect width="300" height="300" style="fill:#e63328"/><rect x="47.62" y="214.16" width="204.76" height="51.55" style="fill:#e63328;stroke:#e9e4d1;stroke-miterlimit:10"/><path d="M56.59,221.77H77.35V227H61.78v10.38H72.16v5.19H61.78v10.38H77.35v5.19H56.59Z" style="fill:#e9e4d1"/><path d="M82.54,221.77h5.19v31.14H103.3v5.19H82.54Z" style="fill:#e9e4d1"/><path d="M108.49,221.77h5.18v25.95h-5.18Zm0,31.14h5.18v5.19h-5.18Z" style="fill:#e9e4d1"/><path d="M118.86,221.77h15.57a5.26,5.26,0,0,1,5.19,5.19v7.78a4.94,4.94,0,0,1-1.54,3.69,1.41,1.41,0,0,1-.24.2l.24.25a4.88,4.88,0,0,1,1.54,3.65v10.38a5.19,5.19,0,0,1-5.19,5.19H118.86ZM134.43,227H124.05v10.38h10.38Zm0,15.57H124.05v10.38h10.38Z" style="fill:#e9e4d1"/><path d="M144.81,227a5.19,5.19,0,0,1,5.19-5.19h10.38a5.26,5.26,0,0,1,5.19,5.19V258.1h-5.19V242.53H150V258.1h-5.19Zm15.57,0H150v10.38h10.38Z" style="fill:#e9e4d1"/><path d="M170.76,221.77h15.57a5.26,5.26,0,0,1,5.18,5.19v10.38a5.19,5.19,0,0,1-5.18,5.19h-2.6l7.78,15.57h-5.18l-7.79-15.57H176V258.1h-5.19ZM186.33,227H176v10.38h10.38Z" style="fill:#e9e4d1"/><path d="M196.7,221.77h5.19v15.57h2.6l7.78-15.57h5.19l-9.08,18.16,9.08,18.17h-5.19l-7.78-15.57h-2.6V258.1H196.7Z" style="fill:#e9e4d1"/><path d="M224.15,256.6a5,5,0,0,1-1.5-3.69v-5.19h5.19v5.19h10.38V242.53H227.84a5.12,5.12,0,0,1-5.19-5.19V227a5.19,5.19,0,0,1,5.19-5.19h10.38a5.26,5.26,0,0,1,5.19,5.19v5.19h-5.19V227H227.84v10.38h10.38a5.26,5.26,0,0,1,5.19,5.19v10.38a5.19,5.19,0,0,1-5.19,5.19H227.84A5,5,0,0,1,224.15,256.6Z" style="fill:#e9e4d1"/><path d="M183.14,94.85c1.05,0-1.63-1.82,0-2.45,1.06,1.39,3,1.9,3.26,4.08-1-.13-1.76-.41-2-1.22-.47.07-.34.74-.4,1.22a4.58,4.58,0,0,1-3.68-4.08c-1.23-1.34-4.78-.38-6.12-1.63,1.19-.9.16-1.66.41-3.67a2.66,2.66,0,0,1,2,.41c.91-.06-.53-1,0-2-1.16.07-1.7.75-2.86.81-1.14.4.6,1.09-.4,1.64-1.09-.42-2.33-.68-2.45-2,1.8-1.06,4-1.71,5.71-2.86,6.13.9,3.39,8.14,6.54,11.83Zm-5.3-4.49c1.11-.29.82.82,1.63.82-.44-1.29,1.58-3.43-.41-3.67a2.33,2.33,0,0,1-1.22,2.85Z" style="fill:#e9e4d1;stroke:#e63328;stroke-miterlimit:10;stroke-width:0.5px"/><path d="M164,89.14c.66-.11.71.39,1.23.41a9.05,9.05,0,0,1-.82,2.45c-1.4-.22-.63-2-.41-2.86Z" style="fill:#e9e4d1;stroke:#e63328;stroke-miterlimit:10;stroke-width:0.5px"/><path d="M176.21,94c-1.09-1.37-3.88-1-3.68-3.68a11,11,0,0,0,6.94,2.45c-.78,1-2.41,1.13-3.26,2,.22.83,1.22.8.4,1.63-1.14-.82-1.67-.73-3.26-.4-.13-.94,1.18-.46,1.22-1.23-.83-.93-2.78-.75-2.85-2.45,1.73.33,2.66,1.44,4.51,1.64Z" style="fill:#e9e4d1;stroke:#e63328;stroke-miterlimit:10;stroke-width:0.5px"/><path d="M141.11,93.22c1,1.75,3,2.48,3.27,4.9C142.6,97.35,139.94,95.62,141.11,93.22Z" style="fill:#e9e4d1;stroke:#e63328;stroke-miterlimit:10;stroke-width:0.5px"/><path d="M146.41,97.3c-1.28.19-1.07-1.1-2-1.22.47-1.69,2.52-.46,2,1.22Z" style="fill:#e9e4d1;stroke:#e63328;stroke-miterlimit:10;stroke-width:0.5px"/><path d="M154.58,102.2c-1.51-.67-2.25-2.11-2.86-3.68,1.79-1.06,2.26,2.23,2.85,3.68Z" style="fill:#e9e4d1;stroke:#e63328;stroke-miterlimit:10;stroke-width:0.5px"/><path d="M159.47,98.93c4.41.18,1.67,8.45-1.22,5.72,1.28-1,1.41-3.21,1.22-5.72Z" style="fill:#e9e4d1;stroke:#e63328;stroke-miterlimit:10;stroke-width:0.5px"/><path d="M162.33,100.56h1.23v1.64c-1.09.12-1.06-.85-1.23-1.64Z" style="fill:#e9e4d1;stroke:#e63328;stroke-miterlimit:10;stroke-width:0.5px"/><path d="M186,102.61c-.66.11-.7-.39-1.22-.41.17-.78.14-1.76,1.22-1.64Z" style="fill:#e9e4d1;stroke:#e63328;stroke-miterlimit:10;stroke-width:0.5px"/><path d="M185.59,105.05c0-1.59.29-3,1.63-3.26-.15,1.49-.05,3.22-1.63,3.26Z" style="fill:#e9e4d1;stroke:#e63328;stroke-miterlimit:10;stroke-width:0.5px"/><path d="M140.3,102.2c1,.52,1.43,3.17.81,4.08,2,.67,5.95,2,7.35,4.48-1.38.46-2.5-2.19-2.45.41-4-1-7.46-4.59-5.71-9Z" style="fill:#e9e4d1;stroke:#e63328;stroke-miterlimit:10;stroke-width:0.5px"/><path d="M192.93,103c-.41.95-.82,1.9-2,2q-.15-2.17,2-2Z" style="fill:#e9e4d1;stroke:#e63328;stroke-miterlimit:10;stroke-width:0.5px"/><path d="M162.74,108.72c-.72-1.2-.85,1.57-2,1.23-.07-2.24,1.35-3,3.26-3.27.08-1.41-.14-3.13,1.22-3.26.49,3.55-1.15,6.91-3.26,6.53a1.13,1.13,0,0,1,.83-1.23Z" style="fill:#e9e4d1;stroke:#e63328;stroke-miterlimit:10;stroke-width:0.5px"/><path d="M187.63,103.83c1.33,1.1-.68,2.28-.81,3.26C184.91,106.35,187.17,104.71,187.63,103.83Z" style="fill:#e9e4d1;stroke:#e63328;stroke-miterlimit:10;stroke-width:0.5px"/><path d="M143.56,105.87c-1.32.5-.31-1.32-1.63-.82C142.13,103.67,144.07,104.26,143.56,105.87Z" style="fill:#e9e4d1;stroke:#e63328;stroke-miterlimit:10;stroke-width:0.5px"/><path d="M174.16,104.24c.9.44,2.58,3.37.41,3.26.48-1.76-1.35-2.29-.41-3.26Z" style="fill:#e9e4d1;stroke:#e63328;stroke-miterlimit:10;stroke-width:0.5px"/><path d="M176.21,104.24c1.83.22,2,4.27,1.22,5.71-1.58-1-.45-3.77-1.22-5.71Z" style="fill:#e9e4d1;stroke:#e63328;stroke-miterlimit:10;stroke-width:0.5px"/><path d="M157,105.05c1.52.94,1.75,3.15,2.45,4.9-1.86-.43-3.63-2.74-2.45-4.9Z" style="fill:#e9e4d1;stroke:#e63328;stroke-miterlimit:10;stroke-width:0.5px"/><path d="M178.65,105.87c1.95.59,1.82,6.78-.41,6.93a32.38,32.38,0,0,0,.4-6.93Z" style="fill:#e9e4d1;stroke:#e63328;stroke-miterlimit:10;stroke-width:0.5px"/><path d="M188.44,106.28c.2,1.83-1.44,1.82-1.63,3.26C184.73,108.49,187.45,106.79,188.44,106.28Z" style="fill:#e9e4d1;stroke:#e63328;stroke-miterlimit:10;stroke-width:0.5px"/><path d="M180.69,110c1.6.68.3,5.07-1.63,4.89C179.3,112.91,180.49,111.92,180.69,110Z" style="fill:#e9e4d1;stroke:#e63328;stroke-miterlimit:10;stroke-width:0.5px"/><path d="M156.62,117.7c.84-.73-1.32-4.09,0-5.3,1,3.64,3.44,7.94,3.26,11.42a10.69,10.69,0,0,1-2.44-5.71,1.12,1.12,0,0,0-.82,1.22c-2.16-1.62-2.68-6.21-2.86-8.57,2.73.53,1.21,5.33,2.86,6.94Z" style="fill:#e9e4d1;stroke:#e63328;stroke-miterlimit:10;stroke-width:0.5px"/><path d="M150.09,112.81c1.29,3.33,3.44,5.81,4.9,9C152.27,120.11,149.72,116.22,150.09,112.81Z" style="fill:#e9e4d1;stroke:#e63328;stroke-miterlimit:10;stroke-width:0.5px"/><path d="M181.92,112.81c1.6,1.13-.68,4.51-2.45,4.89C178.91,116.17,181.74,114.92,181.92,112.81Z" style="fill:#e9e4d1;stroke:#e63328;stroke-miterlimit:10;stroke-width:0.5px"/><path d="M192.93,113.62c2,2.6-1.31,6.8-3.67,7.75,1.4-2.41,3.57-4,3.67-7.75Z" style="fill:#e9e4d1;stroke:#e63328;stroke-miterlimit:10;stroke-width:0.5px"/><path d="M164,126.68c-2.8-2.09-4.28-5.51-4.48-10.2a41.16,41.16,0,0,1,4.49,10.2Z" style="fill:#e9e4d1;stroke:#e63328;stroke-miterlimit:10;stroke-width:0.5px"/><path d="M151.31,117.7c0,3,2,4,2.45,6.53-2.21-.46-4.62-5.56-2.45-6.53Z" style="fill:#e9e4d1;stroke:#e63328;stroke-miterlimit:10;stroke-width:0.5px"/><path d="M194.15,118.11c-1.68,2.26-2.52,5.37-5.3,6.53,1.59-2.35,2.71-5.18,5.3-6.53Z" style="fill:#e9e4d1;stroke:#e63328;stroke-miterlimit:10;stroke-width:0.5px"/><path d="M183.54,123.41c.36,1.21.61-.94,1.63-.4-1.44,1.74-2.84,5.5-4.89,5.3,2.73-2.87,1.73-7.72,7.34-8.16-1.11,1.33-2.76,2.13-4.08,3.26Z" style="fill:#e9e4d1;stroke:#e63328;stroke-miterlimit:10;stroke-width:0.5px"/><path d="M195.38,120.56c-2.13,1.81-3.23,4.66-5.31,6.53a7.88,7.88,0,0,1,5.31-6.53Z" style="fill:#e9e4d1;stroke:#e63328;stroke-miterlimit:10;stroke-width:0.5px"/><path d="M145.2,121.37c1.88-.65,3.3,2.68,4.48,4.08-2.92.07-3.05-2.65-4.48-4.08Z" style="fill:#e9e4d1;stroke:#e63328;stroke-miterlimit:10;stroke-width:0.5px"/><path d="M167.63,127.09c-1.9-.08-4.59-2.7-4.49-6.13a39.91,39.91,0,0,1,4.49,6.13Z" style="fill:#e9e4d1;stroke:#e63328;stroke-miterlimit:10;stroke-width:0.5px"/><path d="M196.2,121.37c.87,1.22-2.69,4.51-3.68,6.53-.51-2.5,2-4.89,3.67-6.53Z" style="fill:#e9e4d1;stroke:#e63328;stroke-miterlimit:10;stroke-width:0.5px"/><path d="M175.79,123a8.1,8.1,0,0,1-3.67.81c.34-1.53,2.91-2,3.68-.81Z" style="fill:#e9e4d1;stroke:#e63328;stroke-miterlimit:10;stroke-width:0.5px"/><path d="M151.31,124.23a2.23,2.23,0,0,1,2,2c-1.13-.23-2.29-.43-2-2Z" style="fill:#e9e4d1;stroke:#e63328;stroke-miterlimit:10;stroke-width:0.5px"/><path d="M196.6,125.05c1.67,1-.84,4.5-2,5.3-1.07-2,1.59-3.48,2-5.3Z" style="fill:#e9e4d1;stroke:#e63328;stroke-miterlimit:10;stroke-width:0.5px"/><path d="M148.46,126.27c1.47,1.38,3.29,2.43,4.08,4.49C150.37,130.07,148.76,128.82,148.46,126.27Z" style="fill:#e9e4d1;stroke:#e63328;stroke-miterlimit:10;stroke-width:0.5px"/><path d="M150.91,126.68c2.06,1.06,4.85,1.41,5.3,4.08-2.33-.8-4.81-1.44-5.3-4.08Z" style="fill:#e9e4d1;stroke:#e63328;stroke-miterlimit:10;stroke-width:0.5px"/><path d="M198.23,126.68c1.26,1-.6,5.57-2.45,6.12-.33-1.68,1.45-4.46,2.45-6.12Z" style="fill:#e9e4d1;stroke:#e63328;stroke-miterlimit:10;stroke-width:0.5px"/><path d="M154.58,127.49a3.17,3.17,0,0,1,4.89,2.86c-1.9-.69-2.93-2.23-4.9-2.86Z" style="fill:#e9e4d1;stroke:#e63328;stroke-miterlimit:10;stroke-width:0.5px"/><path d="M182.73,127.49c1.65.73-1,3.8-2.44,4.08.34-1.83,2.1-2.24,2.45-4.08Z" style="fill:#e9e4d1;stroke:#e63328;stroke-miterlimit:10;stroke-width:0.5px"/><path d="M199.86,127.49c.48-.06.73.09.82.41-.36,3.32-1.35,6-3.67,7.35-.52-2.51,2.27-5,2.85-7.76Z" style="fill:#e9e4d1;stroke:#e63328;stroke-miterlimit:10;stroke-width:0.5px"/><path d="M159.07,140.14c-.41-2,2.82-3.63,3.26-6.12-.66-1.27-.5,1.62-2,.82.72-3,1.61-3.08,1.23-5.72,1.27-.49,2-1.51,4.08-1.22-2,1-2.78,2-2.86,4.08a2.93,2.93,0,0,0,1.22.82c-.84,3.23-2.17,6-4.88,7.34Z" style="fill:#e9e4d1;stroke:#e63328;stroke-miterlimit:10;stroke-width:0.5px"/><path d="M168.86,132c-1.67.17-1.65-1.34-3.67-.81-.19-.87.58-.78,1.22-.82a1.93,1.93,0,0,1-.4-1.22,2.81,2.81,0,0,1,2.86,2.85Z" style="fill:#e9e4d1;stroke:#e63328;stroke-miterlimit:10;stroke-width:0.5px"/><path d="M162.33,138.51c-1.44,3.67-1,4.79-3.26,8.16C157.48,143.68,159.12,140.39,162.33,138.51Z" style="fill:#e9e4d1;stroke:#e63328;stroke-miterlimit:10;stroke-width:0.5px"/><path d="M159.88,147.49c-.26,1.23-.63,2.35-2,2.44-.73-.94.85-2.18,2-2.44Z" style="fill:#e9e4d1;stroke:#e63328;stroke-miterlimit:10;stroke-width:0.5px"/><path d="M167.23,149.93c-1.25,2.56-3.86,3.76-6.12,5.31.92-2.89,3.84-3.79,6.12-5.31Z" style="fill:#e9e4d1;stroke:#e63328;stroke-miterlimit:10;stroke-width:0.5px"/><path d="M157.44,151.16c1.82,1.41-1.68,5.91-3.68,4.89,1-1.85,2.85-2.87,3.67-4.89Z" style="fill:#e9e4d1;stroke:#e63328;stroke-miterlimit:10;stroke-width:0.5px"/><path d="M158.25,155.24c-1.1,2-3.32,4.74-5.71,4.08C154.06,157.57,156.23,156.48,158.25,155.24Z" style="fill:#e9e4d1;stroke:#e63328;stroke-miterlimit:10;stroke-width:0.5px"/><path d="M155.39,160.13c1.85,1-3.1,3.35-4.08,2.86.25-2.06,3.34-1.28,4.08-2.85Z" style="fill:#e9e4d1;stroke:#e63328;stroke-miterlimit:10;stroke-width:0.5px"/><path d="M183.54,176.86c1.67-.24,1.93-1.88,3.67-2-3.8,4.35-9.17,7.15-15.5,9,3.3-2.56,7.8-3.9,11.42-6.13-3.64.31-7.29,4.13-12.24,4.49,5.63-2.8,11.32-5.54,16.32-9-.63,1.82-2.82,2.07-3.67,3.67Z" style="fill:#e9e4d1;stroke:#e63328;stroke-miterlimit:10;stroke-width:0.5px"/><path d="M164,181.35c-7.63,2.82-17.74,4.7-26.92,2.86,3-1.45,8.78-.6,11.83,0,3.8-1.9,10.86-2.74,15.09-2.85Z" style="fill:#e9e4d1;stroke:#e63328;stroke-miterlimit:10;stroke-width:0.5px"/><path d="M127.24,186.25c3.89-.08,7.66,3.49,13.47,2.86-4.25,2-10.48-.88-13.46-2.86Z" style="fill:#e9e4d1;stroke:#e63328;stroke-miterlimit:10;stroke-width:0.5px"/><path d="M155,187.88c-4.19,1.12-10.11,3.7-15.1,3.67-4.09,0-9.7-.25-11.83-3.67,6.76,4,19.81,2.58,26.11-.81C154.86,186.91,154.94,187.38,155,187.88Z" style="fill:#e9e4d1;stroke:#e63328;stroke-miterlimit:10;stroke-width:0.5px"/><path d="M133,166.66c-.85.18-1.08-.28-1.63-.4,0,1.32,1.85.87,1.23,2.85-1,1-.92-.45-1.64-.81-.48,2.25.57,3,1.23,4.08-1.79.3-1.32,2-1.63,2.85-.74.05-.86-.5-1.64-.41,1.56,7,11.6,6.83,20.4,6.12,14.29-1.15,32.34-8.9,37.13-16.72.59-1-.65-2.66,1.23-2.45.5,2.34-1.2,4.93-2.86,6.53-9.25,8.87-28.35,15.84-45.7,14.28-4.82-.44-10.84-1.69-12.24-6.94,0-1.72,1.48-2.06,2-3.27-1.18-12.29,3.9-25.58,9-35.08a5.37,5.37,0,0,1,2.86-2.86c-1.4,8.42-8,13.56-6.53,22.44-.25.57-1.57.06-1.64.82,2.71,3.58-2.7,4.95.41,9Z" style="fill:#e9e4d1;stroke:#e63328;stroke-miterlimit:10;stroke-width:0.5px"/><path d="M199.86,136.06c.84,1.07.86-2.11,2.45-1.63-2,4.56-5.24,7.82-8.57,11-.57-3.63,3.39-2.78,2-6.13,3.8-2.18,3.76-8.2,6.53-11.42.66,2.79-1.32,5.88-2.46,8.16Z" style="fill:#e9e4d1;stroke:#e63328;stroke-miterlimit:10;stroke-width:0.5px"/><path d="M163.55,79.35c1.34,2.09,3.16,6.16,2,9.79-1.15-.62-1-2.54-1.63-3.67h1.22c-1.26-2.2-2.14-3.75-1.62-6.12Z" style="fill:#e9e4d1;stroke:#e63328;stroke-miterlimit:10;stroke-width:0.5px"/><path d="M174.57,134c4,3.85.5,12.87-1.22,16.32,2.3,4.23,5.2,7.86,6.94,12.65-2.93,3.9-7,8.71-12.24,9,1.34-1.52,3.59-2.12,5.3-3.27-1.27-2.46-2.87,2.35-4.49.82.63-2.09,3.49-2,4.49-3.67-.11-.86-1.09.59-1.63-.41,0-1.48,1.68-1.31,2-2.45-1.58-1.17-.32-2.94.41-4.08-.12-.86-1.09.59-1.64-.41,2.07-4.35-2.26-6.4,0-10.2-.34-.61-1.31-.59-2-.82A56.88,56.88,0,0,0,174.56,134Z" style="fill:#e9e4d1;stroke:#e63328;stroke-miterlimit:10;stroke-width:0.5px"/><path d="M186,170.74c-1.46,2.36-4.63,3-6.12,5.31,1.94-1.19,3.52-2.74,5.71-3.67a19.63,19.63,0,0,1-11.83,6.93c1.12-1.46,3.93-1.24,4.9-2.85-3.88.48-8.31,3.93-13.47,4.48,1.42-2.38,4.32-2.35,6.53-3.26a44.77,44.77,0,0,0,17.14-13.06c.29-1.34.19-3.07,1.63-3.26.28,3.46-2.36,7.39-5.31,9-.61,1.21-.33.48.8.43Z" style="fill:#e9e4d1;stroke:#e63328;stroke-miterlimit:10;stroke-width:0.5px"/><path d="M145.2,67.11c1.68.62,2.25-.54,4.08-1.63,1.38,0,1.77,1,2.44,1.63a5,5,0,0,1-4.48,1.63c-6.1,2.9-1.94,12,3.26,13.06a64.59,64.59,0,0,1,9,15.5c-1.29.47-1-.64-1.64-.82-.66,1.4,1.06,3.44.41,6.13-2-1.44-2.37-3.79-3.67-5.72a74.59,74.59,0,0,0-9.38-11c.16-1-.75-.89-.41-2-2.07-1-5.46-2.17-7.75-1.64-2.08,2-4.25,6.86-2.86,9.8.47-.55-.13-4.42,1.22-5.31,1.28,2.27-.59,7.71,1.23,11,1.35-1-1.6-3.26,0-4.49,1.49.55,1.29,2.79,2,4.08,1.27-.61-1.2-1.76,0-2.45,1,1.65,4,2.71,3.26,4.9-1.49-.14-1.52-1.74-2.85-2,.34,4.11-1,10.84,4.08,13.46-1.31.35-1.27-.64-2-.81.22,2,2.09,2.25,2.44,4.08-1.36-.41-1.9-1.64-3.26-2a42.85,42.85,0,0,0,2.86,9c1.2-.59-1-2.24,1.22-2-.07,2.93,2.16,3.56,2.45,6.12-.7-.52-1.61-.84-1.63-2-.56-.07-.82,2.08-1.23.82-1.34,1,1.49,1.2.82,2.86-1.71.34-1.62-1.11-2.45-1.64-.63,3,1.36,5.43.41,7.35-2.53,0-1.32-2.69-2-3.67-4.52,1.38-5.52,7.82-4.9,13.05-1.5-.27-2-1.5-2.85-2.45-.4-8.54,8.55-10.52,7.75-18.76-.28-2.89-2.54-4.59-1.63-8.16-1-2.54-3.23-3.85-2.86-7.76-2.95-5.75-7.17-15.48-2.86-22.44,1.38-.67,2.33-1.76,4.08-2a5.86,5.86,0,0,1-1.22-2.85c-.27-4.42,2.54-7.7,5.3-11,1.85-2.22,2.38-5.57,6.53-5.3,2.4.15,3.74,3.15,6.53,4.89,1.43.89,3.08.6,4.08,1.23,5.12,3.19,7.47,10.9,11,13.46,5.09,1,7.66-2.92,11.83.41.35.28.09,1.29.41,1.63,2.44,2.59,5.46,3.26,6.52,6.94,1.7.2,2.38,1.42,4.08,1.63,3.07,4.46,7.22,10.47,8.17,17.54.26,2-.31,4.15,0,6.12.81,5.35,5.06,9.56,5.3,14.28s-3.58,12.35-6.53,17.55c-1.2,2.11-3.68,3.75-4.49,6.12-.66,1.94-.18,3.9-1.22,5.3s-4.26,1.78-6.53,2.86c-2.67,1.26-3.85,3.5-5.71,3.26.49-5.62,8.51-3.72,11-7.34.76-11.61,12.26-16.8,11.42-28.15-.51-6.82-7.79-11.31-4.49-20-3.27-6.52-3.72-15.86-11.83-17.54-1.93-3.91-5-6.68-8.16-9.38-4.14-.53-10.06,2.39-11.83-2-.81,0-.52,1.11-1.64.81-1.72-3-3.37-8.58-7.75-11.42-.51-.34-1.28.39-1.22.41-4.86-1.68-7.64-9.32-13.06-4.08-.44.42-.4,1.81-1.22,2.85-1.83,2.32-5.66,4.31-4.49,9.8,1.83-.35,1.84-2.52,4.08-2.45-.42-4.51.8-7.36,4.08-8.16a3,3,0,0,0-1.24-.82Zm2,17.54c-.6-.76,0-2.7-.82-3.26C146.76,82.41,145.63,84.9,147.23,84.65Zm3.68,4.49c-.14-1.08,1.47-3.87-.41-4.08.25,1.24-.53,3.51.4,4.08ZM137.85,103c-.13-1.62.94-2.05.82-3.67-.84-.12-.8-1.1-1.64-1.22,0,.49-.12,1-.81.81-.62-.36-.7-3.34-1.63-2C135.88,98.73,136.19,101.55,137.85,103Z" style="fill:#e9e4d1;stroke:#e63328;stroke-miterlimit:10;stroke-width:0.5px"/><path d="M172.53,129.94c-1.38.53-1.17,2.64-1.63,4.08,1,.16-.23-1.86,1.22-1.22.51,1.23-.7,3.79-1.63,4.89.07.48.74.35,1.22.41-.85,3.5-3.33,5.37-5.3,7.75.86,1.36,1.18-1.22,2.45-.81-1.07,2.47-3.07,4-5.31,5.3-.21-2.39,2.3-2.05,2.86-3.67-2.18-3.2,3.91-4.64,4.08-8.16-1.26.91-1.54,2.81-3.27,3.26-.29-2,3-3.76,3.27-6.52-.18-.61-.52.16-1.23,0,.36-1.14.51-2.49,1.23-3.27-.79-1-2.29-1.25-2.45-2.86,1.44-.21,1.79.66,2.45,1.23,1.76-.58-.29-2.13-2-1.63-.18-1.13,1.52-.39,1.63-1.23-1.55-1.24-4.71-2.79-4.08-4.89,1.92,1.89,4.94,2.68,5.71,5.71.56-.13.34-1,.41-1.63-.48-1.43-2.91-.9-2.86-2.86,2.17,1,3.65.51,5.31,1.63,4.44-6.57,11.3-10.73,15.91-17.13.17-1-.74-.89-.41-2,.9-.91,1.36.71,2.45.81.84,4.61-1.44,5.3-4.49,7.35-5.51,3.7-11.44,10.29-12.65,19.17-1.28-.45-.92,0-2.44,0-.67-.67-.31-2.39-.39-3.67Zm1.23-.41c1.14.06,1.17-1,1.22-2h-1.22c0,.68,0,1.36,0,2Z" style="fill:#e9e4d1;stroke:#e63328;stroke-miterlimit:10;stroke-width:0.5px"/><path d="M135.4,184.2h0v0Z" style="fill:#e9e4d1;stroke:#e63328;stroke-miterlimit:10;stroke-width:0.5px"/><path d="M133.36,186.24a1.88,1.88,0,0,1,.41-1.22,9,9,0,0,1-4.9-2.86,18.11,18.11,0,0,0,6.52,2c-2.84-3.26-12-3.2-8.56-10.2.32-.09.48-.34.41-.81-1.07-1-1.37,1-2.45,1.22.3,5.47-4.32,14.28,2,16.73,1,.27,1.08.29,1.4.12s.28-.66.23-1.34c-3.63-.26-3.9-5.54-2.44-8.57.84.89,1.31-.36,2,.41,0,1.52.45,1.16,0,2.45,1.95,1.75,6.92,4.71,10.2,2.44C136.21,186.93,135.1,186.27,133.36,186.24Z" style="fill:#e9e4d1;stroke:#e63328;stroke-miterlimit:10;stroke-width:0.5px"/><path d="M197,175.64c4.67,5.6,10.08,10.73,14.05,17.31H213c-4.33-8.11-10.4-14.49-17.18-20.17-1.61-.53-.83,1.34-2.44.82,1.67-2.58,2.1-10.28-.82-11.83,2,6.57-1.26,10.06-2.85,14.28-4.25,1.41-8.39,4.26-13.06,6.52a140.8,140.8,0,0,1-14.69,6.12c10.71-1.39,18.94-7.44,26.11-11-7.6,4.43-14.73,9.89-23.66,12.65-5.31,1.64-11.65.31-17.55,2.85,19.77,1.87,34.29-8.29,46.52-17.54C194.19,176.44,196.05,176,197,175.64Z" style="fill:#e9e4d1;stroke:#e63328;stroke-miterlimit:10;stroke-width:0.5px"/><line x1="122.8" y1="71.47" x2="87.04" y2="51.81" style="fill:none;stroke:#e9e4d1;stroke-linecap:round;stroke-miterlimit:10;stroke-width:2px"/><line x1="126.91" y1="66.45" x2="89.19" y2="31.2" style="fill:none;stroke:#e9e4d1;stroke-linecap:round;stroke-miterlimit:10;stroke-width:2px"/><line x1="130.33" y1="61.74" x2="113.69" y2="30.78" style="fill:none;stroke:#e9e4d1;stroke-linecap:round;stroke-miterlimit:10;stroke-width:2px"/></svg>